<svg width="37" height="37" viewBox="0 0 37 37" fill="none" xmlns="http://www.w3.org/2000/svg">
<g id="uil:setting">
<path id="Vector" d="M30.6793 19.5174C30.4321 19.2361 30.2958 18.8744 30.2958 18.4999C30.2958 18.1255 30.4321 17.7638 30.6793 17.4824L32.6526 15.2624C32.8701 15.0199 33.0051 14.7147 33.0383 14.3906C33.0716 14.0666 33.0013 13.7403 32.8376 13.4587L29.7543 8.12452C29.5923 7.8432 29.3456 7.62021 29.0494 7.48733C28.7532 7.35445 28.4226 7.31848 28.1047 7.38452L25.2064 7.97036C24.8376 8.04656 24.4536 7.98514 24.127 7.79769C23.8004 7.61024 23.5537 7.30973 23.4335 6.95286L22.493 4.13161C22.3896 3.8254 22.1926 3.55944 21.9298 3.37132C21.6669 3.1832 21.3517 3.08244 21.0285 3.08327H14.8618C14.5256 3.06573 14.1929 3.1587 13.9145 3.348C13.6362 3.5373 13.4274 3.81251 13.3201 4.13161L12.4568 6.95286C12.3365 7.30973 12.0898 7.61024 11.7632 7.79769C11.4366 7.98514 11.0527 8.04656 10.6839 7.97036L7.70846 7.38452C7.40714 7.34194 7.09996 7.38949 6.82562 7.52118C6.55128 7.65286 6.32204 7.86279 6.16679 8.12452L3.08346 13.4587C2.91566 13.7372 2.84022 14.0616 2.86791 14.3856C2.8956 14.7095 3.025 15.0165 3.23762 15.2624L5.19554 17.4824C5.4427 17.7638 5.57901 18.1255 5.57901 18.4999C5.57901 18.8744 5.4427 19.2361 5.19554 19.5174L3.23762 21.7374C3.025 21.9834 2.8956 22.2903 2.86791 22.6143C2.84022 22.9383 2.91566 23.2627 3.08346 23.5412L6.16679 28.8754C6.32882 29.1567 6.57552 29.3797 6.87172 29.5125C7.16793 29.6454 7.49852 29.6814 7.81638 29.6154L10.7147 29.0295C11.0835 28.9533 11.4674 29.0147 11.794 29.2022C12.1207 29.3896 12.3674 29.6902 12.4876 30.047L13.428 32.8683C13.5353 33.1874 13.7441 33.4626 14.0225 33.6519C14.3008 33.8412 14.6335 33.9342 14.9697 33.9166H21.1364C21.4596 33.9174 21.7749 33.8167 22.0377 33.6286C22.3005 33.4404 22.4975 33.1745 22.601 32.8683L23.5414 30.047C23.6616 29.6902 23.9083 29.3896 24.2349 29.2022C24.5616 29.0147 24.9455 28.9533 25.3143 29.0295L28.2126 29.6154C28.5305 29.6814 28.8611 29.6454 29.1573 29.5125C29.4535 29.3797 29.7002 29.1567 29.8622 28.8754L32.9455 23.5412C33.1092 23.2595 33.1795 22.9333 33.1463 22.6092C33.113 22.2852 32.978 21.98 32.7605 21.7374L30.6793 19.5174ZM28.3822 21.5833L29.6155 22.9708L27.6422 26.3933L25.823 26.0233C24.7127 25.7963 23.5577 25.9849 22.5772 26.5533C21.5967 27.1217 20.8591 28.0303 20.5043 29.1066L19.9185 30.8333H15.9718L15.4168 29.0758C15.062 27.9994 14.3243 27.0909 13.3439 26.5225C12.3634 25.9541 11.2084 25.7655 10.098 25.9924L8.27887 26.3624L6.27471 22.9554L7.50804 21.5679C8.26647 20.7199 8.68577 19.6222 8.68577 18.4845C8.68577 17.3469 8.26647 16.2491 7.50804 15.4012L6.27471 14.0137L8.24804 10.622L10.0672 10.992C11.1775 11.219 12.3326 11.0304 13.313 10.462C14.2935 9.89361 15.0312 8.98502 15.386 7.90869L15.9718 6.16661H19.9185L20.5043 7.92411C20.8591 9.00043 21.5967 9.90903 22.5772 10.4774C23.5577 11.0458 24.7127 11.2344 25.823 11.0074L27.6422 10.6374L29.6155 14.0599L28.3822 15.4474C27.6323 16.2934 27.2182 17.3848 27.2182 18.5154C27.2182 19.6459 27.6323 20.7373 28.3822 21.5833ZM17.9451 12.3333C16.7255 12.3333 15.5332 12.6949 14.5191 13.3725C13.505 14.0501 12.7146 15.0132 12.2479 16.1401C11.7811 17.2669 11.659 18.5068 11.8969 19.703C12.1349 20.8992 12.7222 21.998 13.5846 22.8604C14.4471 23.7229 15.5459 24.3102 16.7421 24.5481C17.9383 24.7861 19.1782 24.6639 20.305 24.1972C21.4318 23.7305 22.3949 22.9401 23.0725 21.926C23.7501 20.9119 24.1118 19.7196 24.1118 18.4999C24.1118 16.8644 23.4621 15.2959 22.3056 14.1394C21.1491 12.983 19.5806 12.3333 17.9451 12.3333ZM17.9451 21.5833C17.3353 21.5833 16.7392 21.4024 16.2321 21.0636C15.7251 20.7248 15.3299 20.2433 15.0965 19.6799C14.8631 19.1165 14.8021 18.4965 14.921 17.8984C15.04 17.3003 15.3337 16.7509 15.7649 16.3197C16.1961 15.8885 16.7455 15.5948 17.3436 15.4759C17.9417 15.3569 18.5617 15.4179 19.1251 15.6513C19.6885 15.8847 20.17 16.2799 20.5088 16.7869C20.8476 17.294 21.0285 17.8901 21.0285 18.4999C21.0285 19.3177 20.7036 20.1019 20.1254 20.6802C19.5471 21.2584 18.7629 21.5833 17.9451 21.5833Z" fill="#878A92"/>
</g>
</svg>
